<?xml version="1.0" standalone="no"?><!DOCTYPE svg PUBLIC "-//W3C//DTD SVG 1.1//EN" "http://www.w3.org/Graphics/SVG/1.1/DTD/svg11.dtd"><svg t="1752479879930" class="icon" viewBox="0 0 1024 1024" version="1.1" xmlns="http://www.w3.org/2000/svg" p-id="2389" xmlns:xlink="http://www.w3.org/1999/xlink" width="200" height="200"><path d="M121.602277 309.333236a130.985903 130.985903 0 0 1 3.413314-184.318925A133.545888 133.545888 0 0 1 219.735038 85.334542a123.305947 123.305947 0 0 1 89.172813 36.69312l228.265335 228.265335a130.559238 130.559238 0 0 1-2.986649 184.318924 42.666418 42.666418 0 0 0 0 60.159649 42.666418 42.666418 0 0 0 60.159649 0A215.892074 215.892074 0 0 0 597.332836 290.133348L369.0675 61.441348A209.065447 209.065447 0 0 0 220.161702 0.001707a218.878723 218.878723 0 0 0-155.732425 64.852955 215.892074 215.892074 0 0 0-2.986649 304.638223l198.398843 198.398842a42.666418 42.666418 0 0 0 60.159649 0 42.666418 42.666418 0 0 0 0-60.159649z" p-id="2390" fill="#3b82f6"></path><path d="M962.557372 654.504555l-198.398843-198.398842a42.666418 42.666418 0 1 0-60.159649 60.159649l198.398843 198.398842a130.985903 130.985903 0 0 1-3.413314 184.318925 133.545888 133.545888 0 0 1-94.719447 39.679769 123.305947 123.305947 0 0 1-89.172813-36.693119l-228.265335-228.265336h-2.133321a127.999253 127.999253 0 0 1 3.413313-183.89226A42.666418 42.666418 0 0 0 426.667164 426.665884a215.892074 215.892074 0 0 0-3.413313 304.638223h2.133321v2.133321l228.691999 228.692A209.065447 209.065447 0 0 0 803.838298 1023.995733a218.878723 218.878723 0 0 0 155.30576-64.852955 215.892074 215.892074 0 0 0 3.413314-304.638223z" p-id="2391" fill="#3b82f6"></path></svg>